<?xml version="1.0" encoding="utf-8"?><svg viewBox="0 0 60 60" xmlns="http://www.w3.org/2000/svg" xmlns:xlink="http://www.w3.org/1999/xlink"><style>:root>svg{display:none}:root>svg:target{display:block}</style><svg fill="none" viewBox="0 0 30 22" id="ae" xmlns="http://www.w3.org/2000/svg"><g clip-path="url(#aclip0_16_269)"><path d="M0 0h30v7.333H0V0z" fill="#00732F"/><path d="M0 7.333h30v7.334H0V7.333z" fill="#fff"/><path d="M0 14.667h30V22H0v-7.333z" fill="#000001"/><path d="M0 0h10.313v22H0V0z" fill="red"/></g><defs><clipPath id="aclip0_16_269"><path fill="#fff" d="M0 0h30v22H0z"/></clipPath></defs></svg><svg fill="none" viewBox="0 0 12 7" id="arrow-bottom" xmlns="http://www.w3.org/2000/svg"><path d="M5.296 6.709c.39.39 1.025.39 1.416 0l5-5A1.002 1.002 0 0010.296.293L6.002 4.587 1.71.297A1.002 1.002 0 00.293 1.711l5 5 .003-.003z" fill="#fff"/></svg><svg fill="none" viewBox="0 0 50 50" id="arrow-left" xmlns="http://www.w3.org/2000/svg"><path d="M5.734 23.234a2.504 2.504 0 000 3.54l12.5 12.5a2.504 2.504 0 003.54-3.54L13.538 27.5H42.5c1.383 0 2.5-1.117 2.5-2.5s-1.117-2.5-2.5-2.5H13.54l8.233-8.234a2.504 2.504 0 00-3.539-3.54l-12.5 12.5v.008z" fill="#1E1E1E"/></svg><svg fill="none" viewBox="0 0 50 50" id="arrow-right" xmlns="http://www.w3.org/2000/svg"><path d="M44.266 26.766a2.504 2.504 0 000-3.54l-12.5-12.5a2.504 2.504 0 00-3.54 3.54l8.235 8.234H7.5A2.497 2.497 0 005 25c0 1.383 1.117 2.5 2.5 2.5h28.96l-8.233 8.234a2.504 2.504 0 003.539 3.54l12.5-12.5v-.008z" fill="#1E1E1E"/></svg><svg fill="none" viewBox="0 0 32 24" id="arrow-white" xmlns="http://www.w3.org/2000/svg"><path d="M31.228 13.338a1.991 1.991 0 000-2.814L21.287.582a1.991 1.991 0 00-2.815 2.815l6.549 6.549H1.988c-1.1 0-1.988.888-1.988 1.988s.888 1.988 1.988 1.988h23.033l-6.549 6.55a1.991 1.991 0 002.815 2.814l9.94-9.942v-.006z" fill="#fff"/></svg><svg fill="none" viewBox="0 0 42 42" id="check" xmlns="http://www.w3.org/2000/svg"><circle cx="20.545" cy="20.545" r="20.545" fill="#1E1E1E"/><path d="M29.876 11.29c.621.487.76 1.421.309 2.09L19.07 29.832a1.371 1.371 0 01-1.016.613 1.321 1.321 0 01-1.09-.435l-5.557-5.983a1.58 1.58 0 010-2.117 1.323 1.323 0 011.967 0l4.407 4.744L27.94 11.618c.451-.669 1.32-.818 1.94-.332l-.004.004z" fill="#fff"/></svg><svg fill="none" viewBox="0 0 30 22" id="de" xmlns="http://www.w3.org/2000/svg"><g clip-path="url(#gclip0_16_257)"><path d="M0 14.667h30V22H0v-7.333z" fill="#FC0"/><path d="M0 0h30v7.333H0V0z" fill="#000001"/><path d="M0 7.333h30v7.334H0V7.333z" fill="red"/></g><defs><clipPath id="gclip0_16_257"><path fill="#fff" d="M0 0h30v22H0z"/></clipPath></defs></svg><svg fill="none" viewBox="0 0 60 60" id="faq-arrow" xmlns="http://www.w3.org/2000/svg"><path d="M41.119 32.119a3.005 3.005 0 000-4.247l-15-15a3.004 3.004 0 00-4.247 0 3.005 3.005 0 000 4.247l12.881 12.88-12.872 12.882a3.005 3.005 0 000 4.247 3.005 3.005 0 004.247 0l15-15-.01-.01z" fill="#1E1E1E"/></svg><svg fill="none" viewBox="0 0 40 40" id="hero-arrow" xmlns="http://www.w3.org/2000/svg"><path d="M28.412 13c0-.781-.634-1.416-1.415-1.416h-10a1.416 1.416 0 000 2.832h6.587L12 26a1.413 1.413 0 000 2 1.413 1.413 0 002 0l11.584-11.584v6.587a1.416 1.416 0 002.832 0v-10L28.412 13z" fill="#1E1E1E"/></svg><svg fill="none" viewBox="0 0 29 28" id="instagram" xmlns="http://www.w3.org/2000/svg"><path d="M14.01 6.823c-3.968-.012-7.193 3.2-7.205 7.17-.013 3.968 3.2 7.193 7.168 7.205 3.97.013 7.194-3.2 7.207-7.168.012-3.97-3.2-7.194-7.17-7.207zm-.037 2.525a4.663 4.663 0 11.038 9.326 4.663 4.663 0 01-.038-9.326zm5.838-2.818a1.675 1.675 0 113.35 0 1.675 1.675 0 01-3.35 0zm8.106 1.7c-.106-2.244-.619-4.232-2.262-5.87C24.017.724 22.03.21 19.785.099c-2.312-.13-9.243-.13-11.555 0-2.238.107-4.225.62-5.87 2.257C.718 3.992.21 5.98.099 8.223c-.13 2.313-.13 9.244 0 11.557.107 2.243.62 4.23 2.263 5.868 1.644 1.638 3.625 2.15 5.869 2.263 2.312.131 9.243.131 11.556 0 2.244-.106 4.231-.619 5.869-2.263 1.637-1.637 2.15-3.625 2.262-5.868.131-2.313.131-9.238 0-11.55zM24.93 22.26a4.727 4.727 0 01-2.663 2.663c-1.844.732-6.219.563-8.256.563-2.038 0-6.419.162-8.256-.563a4.727 4.727 0 01-2.663-2.662c-.731-1.844-.562-6.219-.562-8.256 0-2.038-.163-6.42.562-8.257a4.727 4.727 0 012.663-2.662c1.843-.731 6.218-.563 8.256-.563 2.037 0 6.419-.162 8.256.563a4.727 4.727 0 012.663 2.662c.73 1.844.562 6.22.562 8.257s.169 6.418-.562 8.256z" fill="#1E1E1E"/></svg><svg fill="none" viewBox="0 0 30 23" id="kz" xmlns="http://www.w3.org/2000/svg"><g clip-path="url(#kclip0_16_113)"><path d="M0 0h30v23H0V0z" fill="#00ABC2"/><path d="M16.21 12.756c1.672 0 3.028-1.386 3.028-3.096 0-1.71-1.356-3.096-3.028-3.096-1.673 0-3.029 1.386-3.029 3.096 0 1.71 1.356 3.096 3.029 3.096zM16.21 6.143c.18-.002.247-.117.247-.255 0-.184-.248-1.06-.248-1.06s-.247.876-.247 1.06c0 .138.067.255.247.255zM19.65 9.66c.002.184.115.253.25.253.18 0 1.037-.253 1.037-.253s-.858-.253-1.038-.253c-.134 0-.25.069-.25.253zM16.21 13.177c-.18.002-.248.117-.248.255 0 .184.247 1.06.247 1.06s.248-.876.248-1.06c0-.138-.067-.255-.248-.255zM12.77 9.66c-.003-.184-.116-.253-.25-.253-.18 0-1.038.253-1.038.253s.857.253 1.037.253c.135 0 .25-.069.25-.253zM17.528 6.41c.168.069.274-.01.325-.138.069-.17.164-1.075.164-1.075s-.556.71-.625.88c-.051.126-.032.261.136.333zM19.387 11.004c-.066.17.012.277.137.33.167.071 1.054.177 1.054.177s-.7-.57-.867-.64c-.125-.054-.256-.036-.324.133zM14.891 12.91c-.168-.069-.274.01-.325.138-.069.17-.164 1.075-.164 1.075s.556-.71.625-.88c.051-.126.032-.261-.136-.333zM13.032 8.316c.066-.17-.012-.277-.137-.33-.167-.071-1.054-.177-1.054-.177s.7.57.867.64c.125.054.256.036.324-.133zM18.642 7.173c.129.129.256.096.352-.001.127-.13.558-.929.558-.929s-.781.44-.908.57c-.096.098-.13.23-.002.36zM18.642 12.147c-.126.131-.094.261.002.36.127.13.908.57.908.57s-.431-.799-.558-.929c-.096-.097-.225-.131-.352-.001zM13.777 12.147c-.13-.129-.256-.096-.352.001-.127.13-.558.929-.558.929s.78-.44.908-.57c.096-.098.13-.23.002-.36zM13.777 7.173c.126-.131.094-.262-.002-.36-.127-.13-.908-.57-.908-.57s.431.799.558.929c.096.097.225.131.352.001zM19.387 8.316c.07.168.2.187.324.134.167-.071.867-.641.867-.641s-.887.106-1.054.177c-.125.053-.206.161-.137.33zM17.528 12.91c-.167.074-.187.207-.136.334.069.17.625.88.625.88s-.095-.907-.164-1.077c-.05-.127-.157-.208-.325-.137zM13.032 11.004c-.07-.168-.2-.187-.324-.133-.167.07-.867.64-.867.64s.887-.106 1.054-.177c.125-.053.205-.162.137-.33zM14.891 6.41c.167-.074.187-.207.136-.334-.068-.17-.625-.88-.625-.88s.096.907.164 1.076c.051.128.158.21.325.138zM16.886 6.21c.18.035.268-.064.294-.199.034-.18-.047-1.088-.047-1.088s-.41.806-.444.986c-.026.135.019.264.197.301zM19.582 10.346c-.032.18.066.27.198.297.177.037 1.067-.033 1.067-.033s-.796-.421-.973-.458c-.132-.027-.258.016-.292.194zM15.533 13.11c-.18-.035-.268.064-.293.199-.035.18.046 1.088.046 1.088s.41-.806.444-.986c.026-.135-.019-.264-.197-.3zM12.838 8.974c.032-.18-.066-.269-.199-.297-.177-.036-1.066.033-1.066.033s.795.421.972.458c.133.028.258-.016.293-.194zM18.125 6.736c.153.102.272.045.346-.069.1-.152.366-1.02.366-1.02s-.681.583-.781.735c-.075.114-.082.25.07.354zM19.067 11.614c-.097.153-.04.274.072.351.15.103 1 .385 1 .385s-.578-.698-.728-.801c-.112-.077-.245-.086-.344.065zM14.294 12.584c-.152-.102-.271-.045-.346.07-.1.152-.366 1.02-.366 1.02s.682-.584.781-.736c.075-.114.082-.25-.069-.354zM13.352 7.706c.097-.153.04-.274-.072-.351-.15-.103-1-.385-1-.385s.578.698.728.801c.113.077.245.086.344-.065zM19.072 7.709c.102.152.233.145.345.069.15-.102.725-.799.725-.799s-.85.275-1 .378c-.112.076-.17.199-.07.352zM18.119 12.586c-.149.104-.143.238-.068.352.1.153.782.742.782.742s-.27-.87-.37-1.022c-.075-.115-.195-.174-.345-.072zM13.348 11.611c-.102-.152-.233-.145-.346-.069-.15.103-.725.8-.725.8s.85-.276 1-.378c.113-.077.17-.2.07-.353zM14.3 6.734c.15-.104.143-.238.068-.352-.1-.153-.781-.742-.781-.742s.27.87.37 1.022c.074.115.194.174.344.072zM19.584 8.977c.037.18.16.225.293.199.177-.036.97-.455.97-.455s-.89-.077-1.066-.042c-.132.027-.232.118-.197.298zM16.878 13.11c-.176.038-.22.164-.195.3.035.18.445.99.445.99s.076-.909.041-1.089c-.026-.135-.114-.237-.291-.201zM12.835 10.343c-.037-.18-.16-.225-.293-.198-.177.035-.97.454-.97.454s.89.077 1.066.042c.132-.027.232-.118.197-.298zM15.541 6.21c.176-.038.22-.164.195-.3-.035-.18-.445-.99-.445-.99s-.076.909-.041 1.089c.026.135.114.237.291.201z" fill="#FFEC2D"/><path d="M16.105 15.065c-.078.145-.126.313-.225.444-.306-.283-.747-.276-1.134-.292-.319-.019-.665-.049-.913-.28-.259-.22-.473-.5-.76-.677-.271-.06-.526-.18-.745-.352-.455-.38-.716-.943-1.161-1.334-.083-.083-.185-.15-.28-.22-.09.022-.049.22-.159.119-.06-.046-.211-.048-.225.014.135.184.272.39.293.625-.095.01-.26-.02-.304.014.123.19.279.356.459.49-.086.014-.255.007-.288.041.168.165.376.282.603.338.045.065-.07.19.029.244.056.023.245.065.115.131-.09.06-.056.205.058.2.072.04.234.046.248.115-.066.065-.263.143-.095.207.16.093.337.146.52.155-.09.078-.203.121-.295.195.416.25.878.414 1.337.575.18.06.367.117.556.154-.55-.032-1.08-.198-1.58-.425a14.605 14.605 0 00-.783-.327c.115-.062.25-.078.371-.131-.252-.05-.524-.069-.742-.207.031-.064.157-.067.23-.099.134-.032.215-.069.029-.083-.19-.053-.405-.03-.574-.145.011-.069.187-.046.256-.075.09-.017.19-.03.261-.092-.292-.122-.675-.035-.904-.3-.052-.1.164-.02.225-.036.157 0 .326.05.477-.014-.428-.191-.885-.368-1.208-.722-.036-.058-.144-.214-.057-.233.252.035.434.316.707.272.036-.048-.158-.129-.207-.2a5.225 5.225 0 01-1.053-1.173c-.018-.154.214-.177.274-.06.302.299.574.644.95.846.135.067-.077-.078-.104-.13a6.878 6.878 0 01-.92-1.332c-.045-.088-.115-.247.016-.293.128-.066.259.023.324.138.254.33.443.72.76.994-.27-.536-.56-1.104-.567-1.72.007-.12.014-.3.174-.297.135-.02.112.154.157.237.13.455.187.947.45 1.348-.056-.336-.144-.684-.085-1.026.013-.115.135-.147.218-.078.065.16.079.365.137.54a5.445 5.445 0 002.092 2.926c.822.574 1.781.91 2.775.973.09.007.179.013.268.016m3.068 2.095c-.162.101-.287-.078-.422-.131-.1.055-.108.235-.198.322-.108.126-.243-.037-.232-.161-.13.113-.196.368-.405.331-.102-.083-.176-.257-.252-.057-.061.096-.225.234-.313.087-.027-.129-.09-.28-.157-.076-.05.147-.203.253-.347.189-.081-.067.063-.315-.038-.3-.153.107-.243.362-.457.341-.083-.092.052-.255-.04-.361-.106.14-.226.347-.412.361-.09-.073.004-.287-.054-.317-.19.115-.392.324-.63.26.092-.368.483-.495.81-.523.564-.07 1.159.06 1.703-.149.088-.055.3-.131.225-.258-.067-.1.173-.062.196-.179-.014-.147.112-.127.234-.138.549-.025 1.091.092 1.638.113.04.271-.255.462-.495.38-.113.018-.281-.268-.248-.06-.022.11-.009.252-.106.326zm-4.666-.557c.126.118.216-.023.335-.075.39-.156.756-.368 1.087-.628.207-.175.387-.403.666-.46.544-.168 1.123-.148 1.667-.304.416-.58 1.12-.789 1.712-1.122.133-.042.185-.155.226-.276.224-.366.533-.688.897-.909a.817.817 0 01.572-.106.973.973 0 01-.309.61c.133-.002.248-.088.378-.083.046.244-.211.37-.348.522.076.019.369.042.209.12-.203.142-.434.241-.621.41.173.031.194.068.018.132-.097.065-.279.088-.297.217.13.083-.058.16-.133.188-.14.035-.288.097-.101.207-.07.108-.223.131-.347.12.039.124.093.262-.063.317-.348.281-.765.46-1.206.515.552.042 1.121-.062 1.591-.367.063-.076.39-.16.207-.221-.085-.037-.27-.079-.283-.145.256-.161.578-.104.853-.198.006-.092-.21-.067-.29-.087-.192-.017-.18-.067.004-.085.234-.065.5-.076.697-.23-.16-.079-.362-.012-.533-.074.29-.129.632-.143.893-.338.12-.136-.153-.092-.232-.09-.16.03-.234-.05-.051-.117.313-.237.706-.389.927-.73.052-.075.121-.305-.045-.225-.216.076-.408.325-.657.249.49-.389.954-.828 1.289-1.364.018-.157-.22-.173-.281-.05-.315.307-.599.673-1.002.869.38-.388.71-.824.982-1.298.06-.138.22-.305.134-.46-.141-.12-.317-.009-.389.131-.245.327-.43.707-.742.973.272-.535.558-1.108.562-1.725 0-.128-.022-.317-.193-.292-.135.023-.102.23-.158.334-.121.423-.18.88-.427 1.249.056-.343.153-.702.079-1.047-.037-.156-.282-.09-.248.065-.293 1.515-1.29 2.84-2.587 3.606a5.49 5.49 0 01-1.94.667c-.18.04-.378.016-.551.08-.423.33-.678.884-1.21 1.056-.242.122-.552.147-.723.373a.212.212 0 00-.018.096zm1.163-.236a.971.971 0 00-.238.039c-.106.016-.207.052-.31.069l-.043.009-.07.007a.258.258 0 010 .117.138.138 0 01-.032.046.13.13 0 01-.05.041.144.144 0 01-.12.007.147.147 0 01-.055-.034l-.063.011h-.058l-.063-.023-.059-.03c-.076.046-.162.09-.209.17a.258.258 0 00-.036.122.336.336 0 00.031.162c.01.013.016-.053.041-.063a.38.38 0 01.15-.076c.046-.023.039 0 .021.037-.004.021-.03.092.005.056.155-.06.32-.092.486-.095a7.45 7.45 0 01.715-.034l.675.014c.108.004.216.027.322.009.024-.007.065-.007.08-.023-.049-.028-.105-.03-.157-.037h-.43c-.119-.012-.243-.014-.355-.06-.031-.011-.059-.041-.088-.01a.532.532 0 01-.132.03.535.535 0 01-.23-.04c.054-.073.112-.142.173-.208l-.14-.03c.082-.06.161-.122.24-.183z" fill="#FFEC2D"/><path d="M14.85 16.636c.03 0 .054-.025.054-.055a.055.055 0 00-.054-.055.055.055 0 00-.054.055c0 .03.024.055.054.055z" fill="#FFEC2D"/><path d="M14.845 16.595c.013 0 .023-.01.023-.023a.023.023 0 00-.023-.023.023.023 0 00-.022.023c0 .012.01.023.022.023z" fill="#FFEC2D" stroke="#FFEC2D" stroke-width=".024"/><path d="M2.7 1.679s-.216-.189-.29-.094c-.117.15.364.897.364 1.159 0 .432-.283.55-.63.61-.234.04-.614-.017-.614-.017.072-.099.12-.128.239-.135a.51.51 0 01-.27-.467c0-.37.148-.525.148-.943 0-.228-.184-.527-.184-.527a.45.45 0 01.398.593.154.154 0 00.142-.043c.022.069-.014.15-.066.218.04.023.072.01.135-.004-.004.069-.045.147-.148.218.297-.078.477.131.477.352 0 .168-.113.288-.225.288a.224.224 0 01-.12-.04c-.022.046-.008.109.012.155-.081-.023-.135-.074-.097-.178a.2.2 0 01-.146-.069.172.172 0 01.146-.069c-.045-.096.007-.15.081-.193 0 0-.047.193.072.193.054 0 .104-.016.104-.098 0-.072-.061-.17-.203-.164-.142.007-.254.1-.254.33 0 .21.169.317.39.321.197.01.348-.101.348-.31 0-.281-.394-.916-.394-1.164 0-.186.162-.292.324-.292.207 0 .383.211.383.211l-.122.157v.002z" fill="#FFEC2D"/><path d="M2.745 6.718c0 .467-.41.706-.731.706-.432 0-.664-.264-.664-.611 0-.196.036-.32.124-.506l.994-2.11a.633.633 0 00.045-.28c0-.189-.18-.343-.366-.345-.171-.007-.36.16-.36.352 0 .232.119.336.24.336.149 0 .207-.062.207-.17-.003-.073-.031-.108-.085-.106-.128 0-.09.174-.09.174a.116.116 0 01-.081-.059.122.122 0 01-.007-.102.224.224 0 01-.124-.075.233.233 0 01.124-.07c-.03-.1.011-.149.097-.172a.188.188 0 00-.011.11c.135-.041.344.023.344.263 0 .239-.162.439-.466.39.072.035.108.106.117.187-.056-.023-.117-.023-.117-.023.036.062.086.115.083.244-.056-.028-.11-.076-.18-.046.113.23-.027.543-.382.616a.768.768 0 00.193-.49c0-.54-.146-.63-.146-1.007a.561.561 0 01.236-.442v.007a.312.312 0 01-.209-.154c.25-.07.516-.068.765.007a.555.555 0 01.405.276.844.844 0 010 .665c-.142.299-.803 1.738-1.01 2.19a.746.746 0 00-.07.307c0 .276.248.373.387.373.169 0 .342-.131.342-.294 0-.104-.056-.168-.135-.168-.191 0-.18.165-.142.271-.119-.055-.186-.152-.168-.253a.313.313 0 01-.19-.11c.046-.06.104-.106.19-.108-.039-.16.067-.226.168-.263-.031.115-.054.251.142.251.142 0 .252.023.317.12l.016-.621c.01-.187-.243-.184-.405-.127.06-.214.185-.331.473-.301a.226.226 0 01-.108-.089.234.234 0 01-.036-.136c0-.175.14-.368.23-.426l.044 1.817v.002z" fill="#FFEC2D"/><path d="M2.745 8.117c0-.467-.41-.706-.731-.706-.432 0-.664.264-.664.611 0 .196.036.32.124.506l.994 2.11a.633.633 0 01.045.28c0 .189-.18.343-.366.345-.171.007-.36-.16-.36-.352 0-.232.119-.336.24-.336.149 0 .207.063.207.17-.003.073-.031.108-.085.106-.128 0-.09-.174-.09-.174a.115.115 0 00-.081.059.122.122 0 00-.007.102.224.224 0 00-.124.076.232.232 0 00.124.069c-.03.1.011.149.097.172a.188.188 0 01-.011-.11c.135.041.344-.023.344-.263 0-.239-.162-.439-.466-.39.072-.035.108-.106.117-.187-.056.023-.117.023-.117.023.036-.062.086-.115.083-.244-.056.028-.11.076-.18.046.113-.23-.027-.542-.382-.616a.768.768 0 01.193.49c0 .54-.146.63-.146 1.007a.56.56 0 00.236.442v-.007a.312.312 0 00-.209.154c.25.07.516.068.765-.007a.555.555 0 00.405-.276.844.844 0 000-.665 444.6 444.6 0 01-1.01-2.19.746.746 0 01-.07-.307c0-.276.248-.373.387-.373.169 0 .342.131.342.294 0 .104-.056.168-.135.168-.191 0-.18-.165-.142-.271-.119.055-.186.152-.168.253a.313.313 0 00-.19.11c.046.06.104.106.19.108-.039.16.067.226.168.263-.031-.115-.054-.251.142-.251.142 0 .252-.023.317-.12l.016.621c.01.187-.243.184-.405.127.06.214.185.331.473.301a.226.226 0 00-.108.089.234.234 0 00-.036.137c0 .174.14.368.23.425l.044-1.817v-.002zM2.7 1.679s.216-.189.29-.094c.117.15-.364.897-.364 1.159 0 .432.283.55.63.61.234.04.614-.017.614-.017-.072-.099-.12-.128-.239-.135a.51.51 0 00.27-.467c0-.37-.148-.525-.148-.943 0-.228.184-.527.184-.527a.45.45 0 00-.398.593.154.154 0 01-.142-.043c-.022.069.014.15.066.218-.04.023-.072.01-.135-.004.004.069.045.147.148.218C3.18 2.17 3 2.378 3 2.6c0 .168.113.288.225.288.036 0 .09-.017.12-.04.022.046.009.109-.012.155.081-.023.135-.074.097-.178a.2.2 0 00.146-.069.172.172 0 00-.146-.069c.045-.096-.007-.15-.081-.193 0 0 .047.193-.072.193-.054 0-.103-.016-.103-.098 0-.072.06-.17.202-.164.142.007.254.1.254.33 0 .21-.168.317-.389.321-.198.01-.349-.101-.349-.31 0-.281.394-.916.394-1.164 0-.186-.162-.292-.324-.292-.207 0-.382.211-.382.211l.121.157v.002z" fill="#FFEC2D"/><path d="M2.655 6.718c0 .467.41.706.731.706.432 0 .664-.264.664-.611 0-.196-.036-.32-.124-.506l-.994-2.11a.633.633 0 01-.045-.28c0-.189.18-.343.367-.345.17-.007.36.16.36.352 0 .232-.12.336-.241.336-.149 0-.207-.062-.207-.17.003-.073.031-.108.085-.106.129 0 .09.174.09.174a.116.116 0 00.081-.059.122.122 0 00.007-.102.224.224 0 00.124-.075.233.233 0 00-.124-.07c.03-.1-.011-.149-.097-.172a.188.188 0 01.012.11c-.135-.041-.345.023-.345.263 0 .239.162.439.466.39-.072.035-.108.106-.117.187.056-.023.117-.023.117-.023-.036.062-.085.115-.083.244.056-.028.11-.076.18-.046-.113.23.027.543.382.616a.768.768 0 01-.193-.49c0-.54.146-.63.146-1.007a.562.562 0 00-.236-.442v.007a.312.312 0 00.209-.154 1.366 1.366 0 00-.765.007.555.555 0 00-.405.276.844.844 0 000 .665c.142.299.803 1.738 1.01 2.19.045.096.069.199.07.307 0 .276-.247.373-.387.373-.169 0-.342-.131-.342-.294 0-.104.056-.168.135-.168.191 0 .18.165.142.271.12-.055.187-.152.169-.253a.314.314 0 00.189-.11c-.045-.06-.104-.106-.19-.108.039-.16-.067-.226-.168-.263.031.115.054.251-.142.251-.142 0-.252.023-.317.12l-.016-.621c-.009-.187.243-.184.405-.127-.06-.214-.184-.331-.472-.301a.226.226 0 00.107-.089.234.234 0 00.037-.136.598.598 0 00-.23-.426l-.045 1.817v.002z" fill="#FFEC2D"/><path d="M2.655 8.117c0-.467.41-.706.731-.706.432 0 .664.264.664.611 0 .196-.036.32-.124.506l-.994 2.11a.633.633 0 00-.045.28c0 .189.18.343.367.345.17.007.36-.16.36-.352 0-.232-.12-.336-.241-.336-.149 0-.207.063-.207.17.003.073.031.108.085.106.129 0 .09-.174.09-.174a.115.115 0 01.081.059.122.122 0 01.007.102c.048.01.092.037.124.076a.232.232 0 01-.124.069c.03.1-.011.149-.097.172a.188.188 0 00.012-.11c-.135.041-.345-.023-.345-.263 0-.239.162-.439.466-.39-.072-.035-.108-.106-.117-.187a.35.35 0 00.117.023c-.036-.062-.085-.115-.083-.244.056.028.11.076.18.046-.113-.23.027-.542.382-.616a.768.768 0 00-.193.49c0 .54.146.63.146 1.007a.561.561 0 01-.236.442v-.007a.312.312 0 01.209.154c-.25.07-.516.068-.765-.007a.555.555 0 01-.405-.276.844.844 0 010-.665 444.6 444.6 0 001.01-2.19.746.746 0 00.07-.307c0-.276-.247-.373-.387-.373-.169 0-.342.131-.342.294 0 .104.056.168.135.168.191 0 .18-.165.142-.271.12.055.187.152.169.253.073.013.14.052.189.11-.045.06-.104.106-.19.108.039.16-.067.226-.168.263.031-.115.054-.251-.142-.251-.142 0-.252-.023-.317-.12l-.016.621c-.009.187.243.184.405.127-.06.214-.184.331-.472.301a.226.226 0 01.107.089c.026.04.039.088.037.137 0 .174-.14.368-.23.425l-.045-1.817v-.002zM2.7 21.321s-.216.189-.29.094c-.117-.15.364-.897.364-1.159 0-.432-.283-.55-.63-.61-.234-.04-.614.017-.614.017.072.099.12.128.239.135a.51.51 0 00-.27.467c0 .37.148.525.148.943 0 .228-.184.527-.184.527a.45.45 0 00.398-.593.154.154 0 01.142.043c.022-.069-.014-.15-.066-.218.04-.023.072-.01.135.004-.004-.069-.045-.147-.148-.218.297.078.477-.131.477-.352 0-.168-.113-.288-.225-.288a.224.224 0 00-.12.04c-.022-.046-.008-.108.012-.154-.081.023-.135.073-.097.177a.2.2 0 00-.146.069.172.172 0 00.146.069c-.045.096.007.15.081.193 0 0-.047-.193.072-.193.054 0 .104.016.104.099 0 .07-.061.17-.203.163-.142-.007-.254-.1-.254-.33 0-.21.169-.316.39-.321.197-.01.348.101.348.31 0 .281-.394.916-.394 1.164 0 .186.162.292.324.292.207 0 .383-.211.383-.211l-.122-.157v-.002z" fill="#FFEC2D"/><path d="M2.745 16.282c0-.467-.41-.706-.731-.706-.432 0-.664.264-.664.611 0 .196.036.32.124.506l.994 2.11a.633.633 0 01.045.28c0 .189-.18.343-.366.345-.171.007-.36-.16-.36-.352 0-.232.119-.336.24-.336.149 0 .207.063.207.17-.003.073-.031.108-.085.106-.128 0-.09-.174-.09-.174a.116.116 0 00-.081.059.121.121 0 00-.007.102.224.224 0 00-.124.075.232.232 0 00.124.07c-.03.1.011.149.097.172a.188.188 0 01-.011-.11c.135.041.344-.023.344-.263 0-.239-.162-.439-.466-.39.072-.035.108-.106.117-.187-.056.023-.117.023-.117.023.036-.062.086-.115.083-.244-.056.028-.11.076-.18.046.113-.23-.027-.543-.382-.616a.767.767 0 01.193.49c0 .54-.146.63-.146 1.007a.561.561 0 00.236.442v-.007a.312.312 0 00-.209.154c.25.07.516.068.765-.007a.555.555 0 00.405-.276.844.844 0 000-.665c-.142-.299-.803-1.738-1.01-2.19a.746.746 0 01-.07-.307c0-.276.248-.373.387-.373.169 0 .342.131.342.294 0 .104-.056.168-.135.168-.191 0-.18-.165-.142-.271-.119.055-.186.152-.168.253a.314.314 0 00-.19.11c.046.06.104.106.19.108-.039.16.067.226.168.263-.031-.115-.054-.251.142-.251.142 0 .252-.023.317-.12l.016.621c.01.187-.243.184-.405.127.06.214.185.331.473.301a.226.226 0 00-.108.089.234.234 0 00-.036.136c0 .175.14.369.23.426l.044-1.817v-.002z" fill="#FFEC2D"/><path d="M2.745 14.883c0 .467-.41.706-.731.706-.432 0-.664-.264-.664-.611 0-.196.036-.32.124-.506l.994-2.11a.633.633 0 00.045-.28c0-.189-.18-.343-.366-.345-.171-.007-.36.16-.36.352 0 .232.119.336.24.336.149 0 .207-.063.207-.17-.003-.073-.031-.108-.085-.106-.128 0-.09.174-.09.174a.115.115 0 01-.081-.059.122.122 0 01-.007-.102.224.224 0 01-.124-.076.232.232 0 01.124-.069c-.03-.1.011-.149.097-.172a.188.188 0 00-.011.11c.135-.041.344.023.344.263 0 .239-.162.439-.466.39.072.035.108.106.117.187-.056-.023-.117-.023-.117-.023.036.062.086.115.083.244-.056-.028-.11-.076-.18-.046.113.23-.027.542-.382.616a.767.767 0 00.193-.49c0-.54-.146-.63-.146-1.007a.56.56 0 01.236-.442v.007a.312.312 0 01-.209-.154c.25-.07.516-.068.765.007a.555.555 0 01.405.276.844.844 0 010 .665c-.142.299-.803 1.738-1.01 2.19a.746.746 0 00-.07.307c0 .276.248.373.387.373.169 0 .342-.131.342-.294 0-.104-.056-.168-.135-.168-.191 0-.18.165-.142.271-.119-.055-.186-.152-.168-.253a.314.314 0 01-.19-.11c.046-.06.104-.106.19-.108-.039-.16.067-.226.168-.263-.031.115-.054.251.142.251.142 0 .252.023.317.12l.016-.621c.01-.187-.243-.184-.405-.127.06-.214.185-.331.473-.301a.227.227 0 01-.108-.089.234.234 0 01-.036-.136c0-.175.14-.369.23-.426l.044 1.817v.002zM2.7 21.321s.216.189.29.094c.117-.15-.364-.897-.364-1.159 0-.432.283-.55.63-.61.234-.04.614.017.614.017-.072.099-.12.128-.239.135a.51.51 0 01.27.467c0 .37-.148.525-.148.943 0 .228.184.527.184.527a.45.45 0 01-.398-.593.154.154 0 00-.142.043c-.022-.069.014-.15.066-.218-.04-.023-.072-.01-.135.004.004-.069.045-.147.148-.218C3.18 20.83 3 20.622 3 20.4c0-.168.113-.288.225-.288.036 0 .09.017.12.04.022-.046.009-.108-.012-.154.081.023.135.073.097.177a.2.2 0 01.146.069.172.172 0 01-.146.069c.045.096-.007.15-.081.193 0 0 .047-.193-.072-.193-.054 0-.103.016-.103.099 0 .07.06.17.202.163.142-.007.254-.1.254-.33 0-.21-.168-.316-.389-.321-.198-.01-.349.101-.349.31 0 .281.394.916.394 1.164 0 .186-.162.292-.324.292-.207 0-.382-.211-.382-.211l.121-.157v-.002z" fill="#FFEC2D"/><path d="M2.655 16.282c0-.467.41-.706.731-.706.432 0 .664.264.664.611 0 .196-.036.32-.124.506l-.994 2.11a.633.633 0 00-.045.28c0 .189.18.343.367.345.17.007.36-.16.36-.352 0-.232-.12-.336-.241-.336-.149 0-.207.063-.207.17.003.073.031.108.085.106.129 0 .09-.174.09-.174a.117.117 0 01.081.059.121.121 0 01.007.102c.048.01.092.037.124.075a.232.232 0 01-.124.07c.03.1-.011.149-.097.172a.188.188 0 00.012-.11c-.135.041-.345-.023-.345-.263 0-.239.162-.439.466-.39-.072-.035-.108-.106-.117-.187a.35.35 0 00.117.023c-.036-.062-.085-.115-.083-.244.056.028.11.076.18.046-.113-.23.027-.543.382-.616a.767.767 0 00-.193.49c0 .54.146.63.146 1.007a.562.562 0 01-.236.442v-.007a.312.312 0 01.209.154c-.25.07-.516.068-.765-.007a.555.555 0 01-.405-.276.844.844 0 010-.665c.142-.299.803-1.738 1.01-2.19a.746.746 0 00.07-.307c0-.276-.247-.373-.387-.373-.169 0-.342.131-.342.294 0 .104.056.168.135.168.191 0 .18-.165.142-.271.12.055.187.152.169.253.073.013.14.052.189.11-.045.06-.104.106-.19.108.039.16-.067.226-.168.263.031-.115.054-.251-.142-.251-.142 0-.252-.023-.317-.12l-.016.621c-.009.187.243.184.405.127-.06.214-.184.331-.472.301a.226.226 0 01.107.089c.026.04.039.088.037.136 0 .175-.14.369-.23.426l-.045-1.817v-.002z" fill="#FFEC2D"/><path d="M2.655 14.883c0 .467.41.706.731.706.432 0 .664-.264.664-.611 0-.196-.036-.32-.124-.506l-.994-2.11a.633.633 0 01-.045-.28c0-.189.18-.343.367-.345.17-.007.36.16.36.352 0 .232-.12.336-.241.336-.149 0-.207-.063-.207-.17.003-.073.031-.108.085-.106.129 0 .09.174.09.174a.115.115 0 00.081-.059.122.122 0 00.007-.102.224.224 0 00.124-.076.232.232 0 00-.124-.069c.03-.1-.011-.149-.097-.172a.188.188 0 01.012.11c-.135-.041-.345.023-.345.263 0 .239.162.439.466.39-.072.035-.108.106-.117.187.056-.023.117-.023.117-.023-.036.062-.085.115-.083.244.056-.028.11-.076.18-.046-.113.23.027.542.382.616a.767.767 0 01-.193-.49c0-.54.146-.63.146-1.007a.561.561 0 00-.236-.442v.007a.312.312 0 00.209-.154 1.366 1.366 0 00-.765.007.555.555 0 00-.405.276.844.844 0 000 .665c.142.299.803 1.738 1.01 2.19.045.096.069.198.07.307 0 .276-.247.373-.387.373-.169 0-.342-.131-.342-.294 0-.104.056-.168.135-.168.191 0 .18.165.142.271.12-.055.187-.152.169-.253a.314.314 0 00.189-.11c-.045-.06-.104-.106-.19-.108.039-.16-.067-.226-.168-.263.031.115.054.251-.142.251-.142 0-.252.023-.317.12l-.016-.621c-.009-.187.243-.184.405-.127-.06-.214-.184-.331-.472-.301a.227.227 0 00.107-.089.234.234 0 00.037-.136.598.598 0 00-.23-.426l-.045 1.817v.002z" fill="#FFEC2D"/></g><defs><clipPath id="kclip0_16_113"><path fill="#fff" d="M0 0h30v23H0z"/></clipPath></defs></svg><svg fill="none" viewBox="0 0 11 10" id="lang-arrow" xmlns="http://www.w3.org/2000/svg"><path d="M6.766 8.25c-.77 1.333-2.694 1.333-3.464 0L.271 3c-.77-1.333.192-3 1.732-3h6.062c1.54 0 2.502 1.667 1.732 3l-3.03 5.25z" fill="#1E1E1E"/></svg><svg fill="none" viewBox="0 0 50 50" id="max" xmlns="http://www.w3.org/2000/svg"><path d="M25 5.625C14.297 5.625 5.625 14.297 5.625 25S14.297 44.375 25 44.375 44.375 35.703 44.375 25 35.703 5.625 25 5.625zm8.984 13.18c-.289 3.062-1.554 10.5-2.195 13.93-.273 1.453-.805 1.937-1.32 1.984-1.125.101-1.977-.742-3.07-1.461-1.704-1.117-2.672-1.813-4.32-2.906-1.915-1.258-.673-1.954.413-3.086.29-.297 5.242-4.805 5.336-5.211.016-.055.024-.242-.094-.344-.117-.102-.28-.063-.398-.04-.172.04-2.898 1.837-8.172 5.4-.773.53-1.477.788-2.102.773-.695-.016-2.023-.39-3.015-.711-1.211-.39-2.18-.602-2.094-1.274.047-.351.524-.703 1.438-1.07 5.648-2.46 9.414-4.086 11.296-4.867 5.383-2.235 6.5-2.625 7.227-2.64.164 0 .516.038.75.226.156.133.25.32.273.523.04.25.047.508.032.766l.015.008z" fill="#1E1E1E"/></svg><svg fill="none" viewBox="0 0 50 50" id="phone" xmlns="http://www.w3.org/2000/svg"><path d="M17.515 6.953a3.175 3.175 0 00-3.757-1.844l-.43.118c-5.047 1.375-9.36 6.265-8.102 12.218 2.899 13.672 13.657 24.43 27.328 27.328 5.962 1.266 10.844-3.054 12.22-8.101l.117-.43a3.163 3.163 0 00-1.837-3.758l-7.601-3.164a3.169 3.169 0 00-3.672.922l-3.015 3.688a26.755 26.755 0 01-12.454-12.891l3.453-2.813a3.175 3.175 0 00.922-3.671l-3.172-7.602z" fill="#1E1E1E"/></svg><svg fill="none" viewBox="0 0 50 50" id="prev" xmlns="http://www.w3.org/2000/svg"><path d="M5.734 23.234a2.504 2.504 0 000 3.54l12.5 12.5a2.504 2.504 0 003.54-3.54L13.538 27.5H42.5c1.383 0 2.5-1.117 2.5-2.5s-1.117-2.5-2.5-2.5H13.54l8.233-8.234a2.504 2.504 0 00-3.539-3.54l-12.5 12.5v.008z" fill="#1E1E1E"/></svg><svg fill="none" viewBox="0 0 30 23" id="ru" xmlns="http://www.w3.org/2000/svg"><g clip-path="url(#pclip0_16_31)"><path d="M0 0h30v7.667H0V0z" fill="#fff"/><path d="M0 7.667h30v7.666H0V7.667z" fill="#0039A6"/><path d="M0 15.333h30V23H0v-7.667z" fill="#D52B1E"/></g><defs><clipPath id="pclip0_16_31"><path fill="#fff" d="M0 0h30v23H0z"/></clipPath></defs></svg><svg fill="none" viewBox="0 0 42 42" id="shield" xmlns="http://www.w3.org/2000/svg"><circle cx="20.545" cy="20.545" r="20.545" fill="#fff"/><path d="M30.486 13.255v6.193c0 .704-.277 1.379-.774 1.876l-7.953 7.953a2.65 2.65 0 01-3.749 0l-6.193-6.193a2.65 2.65 0 010-3.748l7.953-7.953a2.63 2.63 0 011.873-.779h6.192a2.653 2.653 0 012.651 2.651zm-4.639.663c-.733 0-1.325.592-1.325 1.325s.592 1.326 1.325 1.326 1.326-.593 1.326-1.326c0-.733-.593-1.325-1.326-1.325z" fill="#1E1E1E"/></svg><svg fill="none" viewBox="0 0 31 31" id="telegram" xmlns="http://www.w3.org/2000/svg"><path d="M15.5 0C6.937 0 0 6.938 0 15.5 0 24.063 6.938 31 15.5 31 24.063 31 31 24.062 31 15.5 31 6.937 24.062 0 15.5 0zm7.188 10.544c-.232 2.45-1.244 8.4-1.757 11.143-.219 1.163-.643 1.55-1.056 1.588-.9.081-1.581-.594-2.456-1.169-1.363-.894-2.138-1.45-3.457-2.325-1.53-1.006-.537-1.562.332-2.468.231-.238 4.194-3.844 4.268-4.17.013-.043.02-.193-.075-.274-.093-.082-.224-.05-.318-.031-.138.03-2.319 1.468-6.538 4.318-.619.425-1.181.632-1.681.619-.556-.012-1.619-.313-2.412-.569-.97-.312-1.744-.481-1.676-1.018.038-.282.42-.563 1.15-.857 4.52-1.968 7.532-3.268 9.038-3.893 4.306-1.788 5.2-2.1 5.781-2.113.131 0 .413.031.6.181.125.107.2.256.219.419.031.2.038.406.025.612l.012.007z" fill="#1E1E1E"/></svg><svg fill="none" viewBox="0 0 50 50" id="whatsapp" xmlns="http://www.w3.org/2000/svg"><path d="M37.258 12.586A17.213 17.213 0 0024.992 7.5c-9.562 0-17.344 7.781-17.344 17.344 0 3.054.797 6.039 2.313 8.672L7.5 42.5l9.195-2.414a17.29 17.29 0 008.29 2.11h.007c9.555 0 17.508-7.782 17.508-17.344 0-4.633-1.969-8.985-5.242-12.266zM24.992 39.273a14.39 14.39 0 01-7.344-2.007l-.523-.313-5.453 1.43 1.453-5.32-.344-.547a14.367 14.367 0 01-2.203-7.672c0-7.946 6.469-14.414 14.422-14.414 3.852 0 7.469 1.5 10.188 4.226 2.718 2.727 4.39 6.344 4.382 10.196 0 7.953-6.633 14.421-14.578 14.421zm7.906-10.796c-.43-.22-2.562-1.266-2.96-1.407-.399-.148-.688-.218-.977.22-.29.437-1.117 1.405-1.375 1.702-.25.29-.508.328-.938.11-2.546-1.274-4.218-2.274-5.898-5.157-.445-.765.445-.71 1.273-2.367.141-.289.07-.539-.039-.758-.109-.218-.976-2.351-1.336-3.218-.351-.844-.71-.727-.976-.743-.25-.015-.54-.015-.828-.015-.29 0-.758.11-1.157.539-.398.437-1.515 1.484-1.515 3.617s1.555 4.195 1.765 4.484c.22.29 3.055 4.664 7.407 6.547 2.75 1.188 3.828 1.29 5.203 1.086.836-.125 2.562-1.047 2.922-2.062.36-1.016.36-1.883.25-2.063-.102-.195-.39-.305-.82-.515z" fill="#1E1E1E"/></svg></svg>